<svg xmlns:rdf="http://www.w3.org/1999/02/22-rdf-syntax-ns#" xmlns="http://www.w3.org/2000/svg" enable-background="new 0 0 425.2 425.2" xml:space="preserve" height="65.688" viewBox="0 0 238.75399 65.688002" width="238.75" version="1.1" y="0px" x="0px" xmlns:cc="http://creativecommons.org/ns#" xmlns:dc="http://purl.org/dc/elements/1.1/"><g transform="translate(-92.39,-177)"><path style="fill:#84868a" d="m168.44 226.7c-1.669 0-3.102-0.556-4.299-1.664-1.198-1.109-1.796-2.449-1.796-4.02 0-1.492 0.515-2.725 1.546-3.696s3.126-1.899 6.288-2.783c1.982-0.549 3.317-1.021 4.005-1.413v-1.59c0-1.551-0.432-2.802-1.296-3.755-0.864-0.952-2.022-1.428-3.475-1.428-1.316 0-2.484 0.412-3.504 1.237-1.021 0.825-1.738 1.944-2.15 3.357l-1.09-0.295c0.432-1.982 1.37-3.573 2.812-4.771 1.443-1.197 3.136-1.796 5.08-1.796 2.297 0 4.157 0.692 5.581 2.076 1.423 1.384 2.135 3.303 2.135 5.757v9.159c0 1.296 0.083 2.175 0.25 2.636s0.486 0.691 0.957 0.691c0.314 0 0.569-0.132 0.766-0.397 0.196-0.265 0.422-0.819 0.677-1.663h1.031c-0.099 1.335-0.516 2.396-1.251 3.18-0.736 0.785-1.704 1.179-2.901 1.179-1.748 0-2.955-1.012-3.622-3.033-1.06 1.158-2.002 1.953-2.827 2.385s-1.798 0.647-2.917 0.647zm5.743-5.007v-7.244c-0.609 0.255-1.492 0.579-2.65 0.972-2.14 0.727-3.509 1.448-4.108 2.164-0.599 0.717-0.898 1.684-0.898 2.901 0 1.06 0.319 1.978 0.957 2.753 0.638 0.776 1.399 1.163 2.282 1.163 0.805 0 1.649-0.26 2.533-0.78 0.882-0.519 1.511-1.163 1.884-1.929z"/><path style="fill:#84868a" d="m204.78 204.08h1.001v17.931c0 1.18 0.25 1.976 0.751 2.388 0.5 0.414 1.477 0.62 2.93 0.62v1.001l-7.774 0.412v-3.917h-0.118c-2.14 2.788-4.633 4.183-7.479 4.183-2.042 0-3.716-0.684-5.021-2.05-1.306-1.366-1.958-3.082-1.958-5.146v-10.94c0-1.101-0.275-1.848-0.825-2.241s-1.542-0.59-2.974-0.59v-1.001l6.861-0.648h1.031v15.255c0 1.492 0.437 2.67 1.311 3.533 0.873 0.864 2.046 1.296 3.519 1.296 2.042 0 3.926-1.168 5.654-3.504v-11.538c0-1.475-0.226-2.4-0.677-2.773-0.452-0.374-1.61-0.58-3.475-0.62v-1.001l7.243-0.65z"/><path style="fill:#84868a" d="m219.12 204.08v4.624c1.963-1.708 3.489-2.905 4.579-3.593 1.09-0.687 1.998-1.031 2.725-1.031 1.354 0 2.66 0.56 3.916 1.679l-1.619 3.799c-2.278-1.256-3.966-1.885-5.065-1.885-1.218 0-2.729 0.864-4.535 2.591v11.745c0 1.181 0.245 1.977 0.736 2.39 0.49 0.414 1.433 0.62 2.827 0.62v1.001h-11.279v-1.001c1.492 0 2.468-0.236 2.93-0.709 0.461-0.473 0.691-1.604 0.691-3.397v-11.668c0-1.477-0.25-2.431-0.75-2.865-0.501-0.434-1.723-0.65-3.667-0.65v-1.001l7.48-0.648h1.031z"/><path style="fill:#84868a" d="m255.87 215.42c0 3.22-1.115 5.904-3.343 8.055-2.229 2.149-5.012 3.225-8.349 3.225-3.338 0-6.121-1.075-8.349-3.225-2.229-2.15-3.343-4.835-3.343-8.055 0-3.259 1.109-5.963 3.328-8.113 2.218-2.15 5.006-3.225 8.363-3.225s6.145 1.075 8.363 3.225 3.33 4.854 3.33 8.113zm-4.447 0.015c0-3.047-0.647-5.504-1.943-7.373s-3.062-2.802-5.301-2.802-4.005 0.915-5.301 2.743-1.943 4.306-1.943 7.432c0 3.067 0.643 5.516 1.929 7.344 1.285 1.829 3.058 2.742 5.315 2.742s4.029-0.924 5.315-2.772c1.285-1.849 1.929-4.287 1.929-7.314z"/><path style="fill:#84868a" d="m280.2 204.08h1.001v17.931c0 1.18 0.251 1.976 0.751 2.388 0.501 0.414 1.478 0.62 2.931 0.62v1.001l-7.774 0.412v-3.917h-0.118c-2.14 2.788-4.634 4.183-7.479 4.183-2.042 0-3.716-0.684-5.021-2.05s-1.958-3.082-1.958-5.146v-10.94c0-1.101-0.275-1.848-0.824-2.241-0.55-0.393-1.542-0.59-2.975-0.59v-1.001l6.861-0.648h1.031v15.255c0 1.492 0.437 2.67 1.31 3.533 0.874 0.864 2.047 1.296 3.52 1.296 2.042 0 3.927-1.168 5.654-3.504v-11.538c0-1.475-0.226-2.4-0.678-2.773-0.451-0.374-1.609-0.58-3.475-0.62v-1.001l7.243-0.65z"/><path style="fill:#84868a" d="m287.97 204.73h17.905v1.031l-13.562 19.23h6.647c2.235 0 3.854-0.432 4.854-1.296 1.001-0.864 1.53-2.258 1.589-4.182h1.031l-0.56 6.508h-18.465v-1.03l13.562-19.23h-5.971c-1.824 0-3.325 0.466-4.502 1.399s-1.862 2.194-2.059 3.784h-1.031l0.562-6.214z"/><path style="fill:#84868a" d="m330.14 220.54v1.561c-1.296 1.649-2.616 2.827-3.961 3.534s-2.96 1.061-4.845 1.061c-3.338 0-6.091-1.046-8.26-3.137-2.17-2.091-3.255-4.746-3.255-7.966 0-3.239 1.036-5.968 3.107-8.187 2.071-2.218 4.608-3.328 7.612-3.328 2.474 0 4.633 0.834 6.479 2.503s2.769 3.662 2.769 5.979v0.441h-15.696v0.294c0 2.356 0.358 4.403 1.075 6.14 0.716 1.737 1.762 3.098 3.136 4.079s2.808 1.473 4.3 1.473c1.394 0 2.586-0.29 3.578-0.869 0.991-0.579 2.311-1.771 3.961-3.578zm-16.05-8.57h11.632v-0.412c0-1.904-0.544-3.416-1.634-4.535s-2.449-1.679-4.079-1.679c-1.728 0-3.116 0.589-4.167 1.767-1.05 1.179-1.634 2.798-1.752 4.859z"/></g><g transform="translate(-92.39,-177)"><path style="fill:#47773b" d="m144.03 215.6s-10.353 4.95-25.128 0c0 0-15.544-6.088-24.383 0 0 0-0.557 22.793 24.551 24.761 0 0 23.268-0.13 24.96-25.075"/></g><g transform="translate(-92.39,-177)"><path style="fill:#609747" d="m93.618 214.71s10.352 4.95 25.128 0c0 0 15.544-6.088 24.383 0 0 0 0.557 22.793-24.551 24.761 0 0-23.269-0.13-24.96-25.075"/></g><g transform="translate(-92.39,-177)"><path style="fill:#a8abb1" d="m138.28 202.13c-0.397 0-0.789-0.178-1.05-0.516-2.972-3.86-5.175-6.545-9.887-8.002l-1.34-0.28v-15.33h4.244c0.732 0 1.325 0.768 1.325 1.5 0 0.73-0.593 1.5-1.325 1.5h-2.244v10.397c6 1.93 8.655 5.437 11.094 8.605 0.445 0.58 0.457 1.411-0.121 1.857-0.242 0.185-0.407 0.275-0.689 0.275z"/></g><g transform="translate(-92.39,-177)"><path style="fill:#a8abb1" d="m119.37 241.69c-14.555 0-25.98-11.702-25.98-26.085 0-10.34 6.61-19.854 15.61-23.96v-10.643h-2.596c-0.732 0-1.324-0.77-1.324-1.5 0-0.732 0.592-1.5 1.324-1.5h4.596v15.407l-0.917 0.336c-8.594 3.492-14.413 12.277-14.413 21.859 0 12.923 10.63 23.436 23.723 23.436 12.837 0 23.271-10.513 23.271-23.436 0-1.575-0.222-3.13-0.687-4.886-0.188-0.708 0.231-1.432 0.938-1.62 0.709-0.183 1.431 0.235 1.619 0.942 0.525 1.984 0.768 3.752 0.768 5.563-0.001 14.384-11.633 26.087-25.932 26.087z"/></g><g transform="translate(-92.39,-177)"><path style="fill:#fff" d="m124.13 224.38c0.449 1.307 1.628 1.35 1.628 1.35 2.389-1.867 5.359-4.76 7.594-7.253 3.136-3.498 5.082-6 5.082-6l-1.438-0.272-5.603 6.172-7.263 6.003z"/></g><g transform="translate(-92.39,-177)"><path style="fill:#28522a" d="m124.13 224.45c2.627-1.959 5.353-4.198 7.885-6.663 4.738-4.539 8.698-9.831 11.018-14.157 0.557-1.093 1.068-2.098 1.52-2.986 0.396-0.913 0.678-1.734 0.943-2.4 0.514-1.338 0.807-2.103 0.807-2.103s-0.25 0.779-0.687 2.142c-0.227 0.68-0.464 1.52-0.81 2.459-0.405 0.918-0.862 1.955-1.359 3.085-0.124 0.284-0.251 0.573-0.381 0.868-0.147 0.287-0.314 0.569-0.475 0.863-0.325 0.584-0.661 1.189-1.006 1.808-0.649 1.272-1.526 2.497-2.39 3.794-1.732 2.591-3.873 5.157-6.119 7.628-3.404 3.698-6.002 5.838-7.319 6.949 4.876 0.726 22.826 1.305 20.864-30.117 0.001-0.001-30.684 7.023-22.491 28.83z"/></g><g transform="translate(-92.39,-177)"><path style="fill:#28522a" d="m124.13 224.45c-2.25 1.679-4.43 3.153-6.344 4.361-2.084 1.302-3.861 2.314-5.12 2.979-0.51 0.276-0.484 0.265-0.806 0.426-0.074 0.037-0.322 0.168-0.387 0.195-0.85 0.361-0.337 1.237-0.337 1.237l0.223 0.441 0.273 0.537s0.494 0.771 1.164 0.319c0.317-0.212 0.758-0.442 1.263-0.752 1.271-0.763 3.043-1.906 5.109-3.354 1.994-1.419 4.265-3.146 6.59-5.104-0.532-0.114-1.498-0.936-1.628-1.285z"/></g><g transform="translate(-92.39,-177)"><path style="fill:#84868a" d="m200.76 234.06c0.202-0.028 0.413-0.053 0.634-0.073 0.221-0.021 0.465-0.03 0.734-0.03 0.908 0 1.598 0.271 2.071 0.812s0.709 1.354 0.709 2.437c0 1.089-0.24 1.891-0.72 2.403-0.48 0.513-1.193 0.769-2.139 0.769-0.245 0-0.471-0.01-0.677-0.03-0.206-0.021-0.41-0.045-0.612-0.073v-6.215zm1.059 5.211c0.043 0.006 0.098 0.012 0.166 0.018s0.149 0.009 0.245 0.009c0.221 0 0.426-0.03 0.616-0.091 0.189-0.061 0.354-0.171 0.493-0.333 0.139-0.161 0.25-0.377 0.331-0.647 0.082-0.271 0.123-0.62 0.123-1.046 0-0.415-0.041-0.761-0.123-1.037s-0.192-0.496-0.331-0.657-0.299-0.274-0.479-0.341-0.371-0.1-0.572-0.1c-0.067 0-0.146 0.001-0.234 0.004s-0.167 0.011-0.234 0.021v4.2z"/><path style="fill:#84868a" d="m210.67 234.06h2.938c0.029 0.173 0.043 0.349 0.043 0.527 0 0.19-0.015 0.371-0.043 0.544h-1.887v1.349h1.498c0.029 0.185 0.043 0.363 0.043 0.536 0 0.185-0.014 0.365-0.043 0.544h-1.498v1.643h1.937c0.029 0.173 0.043 0.349 0.043 0.526 0 0.19-0.015 0.372-0.043 0.545h-2.989v-6.214z"/><path style="fill:#84868a" d="m219.4 234.03c0.221-0.022 0.444-0.041 0.67-0.056s0.454-0.021 0.685-0.021c0.239 0 0.483 0.028 0.73 0.086s0.471 0.166 0.67 0.324c0.199 0.159 0.361 0.379 0.486 0.661s0.188 0.648 0.188 1.098-0.062 0.814-0.188 1.094-0.286 0.5-0.482 0.661c-0.197 0.161-0.417 0.271-0.659 0.328s-0.481 0.086-0.717 0.086c-0.062 0-0.121-0.001-0.177-0.004-0.055-0.003-0.106-0.007-0.154-0.013v1.996c-0.092 0.018-0.18 0.028-0.267 0.034-0.086 0.006-0.17 0.009-0.252 0.009-0.077 0-0.161-0.003-0.252-0.009-0.092-0.006-0.185-0.017-0.281-0.034v-6.24zm1.051 3.198c0.058 0.012 0.111 0.018 0.162 0.018h0.184c0.12 0 0.237-0.019 0.353-0.057 0.115-0.037 0.218-0.1 0.307-0.186 0.089-0.087 0.159-0.2 0.212-0.342 0.053-0.141 0.079-0.315 0.079-0.522 0-0.213-0.026-0.394-0.079-0.54-0.053-0.147-0.123-0.266-0.212-0.354-0.089-0.09-0.191-0.152-0.307-0.19-0.115-0.037-0.232-0.056-0.353-0.056-0.053 0-0.103 0.001-0.147 0.004-0.046 0.003-0.112 0.01-0.198 0.021v2.204z"/><path style="fill:#84868a" d="m228.46 234.06c0.091-0.018 0.18-0.028 0.267-0.034 0.086-0.006 0.175-0.009 0.266-0.009 0.082 0 0.166 0.003 0.253 0.009 0.086 0.006 0.175 0.017 0.266 0.034v3.224c0 0.352 0.012 0.652 0.033 0.903 0.021 0.25 0.064 0.458 0.129 0.622s0.156 0.285 0.274 0.363c0.117 0.077 0.27 0.116 0.457 0.116s0.339-0.039 0.454-0.116c0.115-0.078 0.205-0.199 0.27-0.363s0.108-0.372 0.13-0.622c0.021-0.251 0.032-0.552 0.032-0.903v-3.224c0.096-0.018 0.188-0.028 0.273-0.034 0.087-0.006 0.171-0.009 0.252-0.009 0.087 0 0.175 0.003 0.264 0.009 0.088 0.006 0.179 0.017 0.27 0.034v3.491c0 0.421-0.028 0.806-0.086 1.154s-0.161 0.646-0.311 0.895c-0.148 0.247-0.348 0.439-0.598 0.574-0.249 0.136-0.566 0.203-0.95 0.203s-0.701-0.067-0.951-0.203c-0.249-0.135-0.448-0.327-0.598-0.574-0.148-0.248-0.252-0.546-0.31-0.895s-0.086-0.733-0.086-1.154v-3.491z"/><path style="fill:#84868a" d="m238.22 234.06c0.178-0.034 0.354-0.052 0.526-0.052s0.35 0.018 0.532 0.052v6.214c-0.183 0.034-0.357 0.052-0.525 0.052-0.178 0-0.355-0.018-0.533-0.052v-6.214z"/><path style="fill:#84868a" d="m246.13 237.4c-0.163-0.075-0.31-0.157-0.439-0.246-0.129-0.09-0.239-0.196-0.331-0.32-0.091-0.123-0.162-0.271-0.212-0.444-0.051-0.173-0.076-0.381-0.076-0.623 0-0.293 0.042-0.553 0.126-0.777s0.203-0.413 0.356-0.566c0.154-0.152 0.339-0.268 0.555-0.346 0.216-0.077 0.459-0.116 0.728-0.116 0.245 0 0.475 0.025 0.688 0.077 0.214 0.053 0.438 0.127 0.674 0.226-0.029 0.334-0.105 0.662-0.23 0.984-0.072-0.034-0.146-0.068-0.22-0.104-0.074-0.034-0.153-0.063-0.237-0.086s-0.18-0.042-0.285-0.057c-0.105-0.014-0.226-0.021-0.359-0.021-0.082 0-0.165 0.009-0.249 0.026s-0.159 0.049-0.227 0.095-0.123 0.114-0.166 0.203c-0.043 0.09-0.064 0.206-0.064 0.35 0 0.115 0.017 0.212 0.05 0.29 0.034 0.077 0.08 0.144 0.138 0.198 0.058 0.056 0.122 0.102 0.194 0.139 0.071 0.037 0.144 0.073 0.216 0.108l0.432 0.198c0.183 0.087 0.349 0.176 0.497 0.268 0.149 0.093 0.275 0.207 0.378 0.342 0.104 0.136 0.184 0.3 0.241 0.492 0.058 0.193 0.087 0.432 0.087 0.714 0 0.293-0.045 0.562-0.133 0.804-0.089 0.241-0.218 0.449-0.386 0.622s-0.376 0.309-0.623 0.406-0.531 0.146-0.854 0.146c-0.158 0-0.3-0.006-0.425-0.018-0.125-0.011-0.244-0.029-0.356-0.056-0.113-0.026-0.225-0.059-0.335-0.1-0.11-0.04-0.226-0.089-0.346-0.146 0.015-0.167 0.041-0.342 0.079-0.523 0.039-0.181 0.084-0.364 0.137-0.549 0.202 0.099 0.392 0.172 0.569 0.221s0.367 0.073 0.569 0.073c0.302 0 0.54-0.067 0.713-0.203 0.173-0.135 0.259-0.341 0.259-0.617 0-0.139-0.021-0.254-0.062-0.346-0.04-0.093-0.093-0.17-0.158-0.233-0.064-0.063-0.138-0.117-0.22-0.16-0.081-0.043-0.165-0.085-0.252-0.125l-0.441-0.2z"/><path style="fill:#84868a" d="m261.89 239.24v-3.024l-0.886 0.423c-0.091-0.144-0.168-0.291-0.23-0.44-0.062-0.155-0.112-0.316-0.151-0.484l2.067-1.089h0.194v4.615h1.03c0.014 0.098 0.023 0.188 0.028 0.268 0.005 0.081 0.008 0.162 0.008 0.242 0 0.093-0.003 0.179-0.008 0.26-0.005 0.08-0.015 0.17-0.028 0.268h-3.068c-0.015-0.098-0.024-0.188-0.028-0.268-0.005-0.081-0.008-0.167-0.008-0.26 0-0.08 0.003-0.161 0.008-0.242 0.004-0.08 0.014-0.17 0.028-0.268h1.044z"/><path style="fill:#84868a" d="m270.46 236.98c-0.187-0.132-0.342-0.313-0.464-0.544-0.123-0.23-0.184-0.493-0.184-0.787 0-0.241 0.04-0.461 0.122-0.656 0.082-0.196 0.193-0.363 0.335-0.501 0.142-0.139 0.31-0.245 0.504-0.32s0.404-0.112 0.63-0.112 0.437 0.037 0.631 0.112 0.362 0.182 0.504 0.32 0.253 0.305 0.335 0.501c0.081 0.195 0.122 0.415 0.122 0.656 0 0.294-0.062 0.555-0.188 0.782-0.124 0.228-0.28 0.411-0.468 0.549 0.105 0.063 0.213 0.143 0.32 0.238 0.108 0.095 0.203 0.21 0.285 0.346 0.081 0.135 0.148 0.291 0.201 0.466 0.053 0.177 0.079 0.376 0.079 0.602 0 0.311-0.052 0.577-0.154 0.799-0.104 0.222-0.24 0.403-0.411 0.545-0.17 0.141-0.364 0.243-0.583 0.307s-0.443 0.095-0.674 0.095-0.454-0.031-0.673-0.095-0.413-0.166-0.583-0.307c-0.171-0.142-0.308-0.323-0.411-0.545s-0.154-0.488-0.154-0.799c0-0.22 0.024-0.417 0.075-0.593s0.117-0.331 0.202-0.467c0.084-0.135 0.177-0.252 0.28-0.35s0.212-0.178 0.322-0.242zm0.937 0.476c-0.23 0.092-0.418 0.227-0.562 0.401-0.145 0.177-0.216 0.399-0.216 0.67s0.068 0.481 0.205 0.631 0.33 0.225 0.579 0.225c0.26 0 0.455-0.074 0.587-0.225 0.133-0.149 0.198-0.359 0.198-0.631 0-0.276-0.074-0.501-0.223-0.674-0.148-0.172-0.338-0.305-0.568-0.397zm0.006-0.855c0.192-0.081 0.348-0.191 0.465-0.333 0.118-0.141 0.177-0.333 0.177-0.574 0-0.202-0.055-0.364-0.162-0.488-0.108-0.124-0.268-0.187-0.479-0.187s-0.369 0.062-0.475 0.187c-0.106 0.124-0.159 0.286-0.159 0.488 0 0.241 0.06 0.434 0.177 0.574 0.118 0.141 0.27 0.252 0.456 0.333z"/><path style="fill:#84868a" d="m281.12 235.69h-2.168c-0.029-0.173-0.043-0.346-0.043-0.519 0-0.185 0.014-0.363 0.043-0.536h3.543l0.043 0.104-2.117 6.171c-0.173-0.046-0.337-0.106-0.493-0.182s-0.309-0.179-0.457-0.312l1.649-4.726z"/><path style="fill:#84868a" d="m288.08 240.14 1.052-1.65c0.163-0.26 0.31-0.487 0.439-0.683s0.238-0.376 0.327-0.54 0.156-0.317 0.202-0.458c0.045-0.142 0.068-0.284 0.068-0.428 0-0.242-0.071-0.43-0.213-0.562s-0.34-0.198-0.594-0.198c-0.106 0-0.198 0.006-0.277 0.018-0.079 0.011-0.155 0.028-0.228 0.052-0.071 0.022-0.143 0.05-0.212 0.082-0.069 0.031-0.143 0.067-0.22 0.107-0.062-0.161-0.116-0.325-0.162-0.492s-0.073-0.337-0.083-0.51c0.115-0.052 0.223-0.1 0.32-0.143 0.099-0.044 0.198-0.078 0.299-0.104 0.102-0.026 0.206-0.047 0.313-0.061 0.108-0.015 0.231-0.022 0.371-0.022 0.255 0 0.49 0.033 0.706 0.1s0.401 0.169 0.558 0.307c0.156 0.139 0.277 0.313 0.364 0.523 0.086 0.21 0.129 0.456 0.129 0.738 0 0.208-0.023 0.406-0.071 0.597s-0.115 0.379-0.202 0.566c-0.086 0.188-0.188 0.38-0.306 0.579-0.118 0.198-0.249 0.413-0.393 0.644l-0.382 0.613h1.534c0.028 0.173 0.043 0.343 0.043 0.51 0 0.19-0.015 0.372-0.043 0.545h-3.291l-0.048-0.13z"/></g></svg>
