<?xml version="1.0" encoding="UTF-8" standalone="no"?>
<!-- Created with Inkscape (http://www.inkscape.org/) -->
<svg id="svg4682" xmlns:rdf="http://www.w3.org/1999/02/22-rdf-syntax-ns#" xmlns="http://www.w3.org/2000/svg" height="21.485mm" width="21.432mm" version="1.1" xmlns:cc="http://creativecommons.org/ns#" xmlns:dc="http://purl.org/dc/elements/1.1/" viewBox="0 0 75.939222 76.128002">
 <metadata id="metadata4687">
  <rdf:RDF>
   <cc:Work rdf:about="">
    <dc:format>image/svg+xml</dc:format>
    <dc:type rdf:resource="http://purl.org/dc/dcmitype/StillImage"/>
    <dc:title/>
   </cc:Work>
  </rdf:RDF>
 </metadata>
 <g id="layer1" transform="translate(-319.17 -494.3)">
  <path id="path4671" d="m342.56 569.53c0.30829-0.49881-1.6719-0.74474-4.4662-0.55466-2.9834 0.20295-4.783-0.042-4.4358-0.60386 0.32134-0.51994 1.9342-0.94534 3.5842-0.94534s2.7399-0.42085 2.422-0.93523c-0.3179-0.51437 0.85839-1.0769 2.614-1.25 1.7556-0.17312 3.3978-0.94078 3.6494-1.7059 0.3461-1.0526-0.18263-1.2305-2.173-0.73095-1.5516 0.38943-2.6304 0.24225-2.6304-0.35887 0-0.56048-0.9-1.019-2-1.019s-2-0.48032-2-1.0674c0-0.62247 0.85816-0.79502 2.0588-0.41395 1.1564 0.36702 3.5517-0.055 5.4648-0.96283 3.0216-1.4338 3.2901-1.8706 2.379-3.8703-0.56486-1.2397-3.1364-3.5886-5.7145-5.2196-13.936-8.8164-16.238-14.108-14.305-32.872 1.1912-11.562 0.62914-13.338-4.3618-13.784l-3.4728-0.31019 3.9357-4.25c4.8626-5.2509 9.2171-5.7761 13.38-1.6136 1.45 1.45 2.6364 3.1168 2.6364 3.7039 0 0.58713 2.0081 5.1954 4.4625 10.241 3.5854 7.3702 5.7239 10.329 10.88 15.054 6.8296 6.258 18.18 12.447 29.907 16.307 3.7125 1.2219 6.75 2.5868 6.75 3.0331 0 1.149-2.6573 2.0255-6.1408 2.0255-3.8952 0-2.9234 1.427 3.0244 4.441 2.6081 1.3216 5.3852 3.178 6.1714 4.1252 1.6572 1.9968 2.98 2.2536-13.446-2.6109-10.455-3.0964-11.163-3.1767-17.695-2.0094-3.7422 0.66876-7.2349 1.742-7.7616 2.385-1.334 1.6284-1.7548 4.9269-0.81887 6.4191 0.54748 0.87282 0.0471 1.25-1.6583 1.25-1.5994 0-2.6225 0.68862-2.9642 1.9952-0.4484 1.7147-0.14842 1.9142 2.1334 1.4191 2.0588-0.44672 2.3182-0.33679 1.1551 0.48944-0.825 0.58607-2.104 1.0725-2.8423 1.0809-0.73825 0.008-2.4864 0.91531-3.8849 2.0153-2.6168 2.0584-4.8184 2.6918-3.8371 1.1039z"/>
 </g>
</svg>
