<?xml version="1.0" encoding="UTF-8" standalone="no"?>
<!-- Created with Inkscape (http://www.inkscape.org/) -->
<svg id="svg4745" xmlns:rdf="http://www.w3.org/1999/02/22-rdf-syntax-ns#" xmlns="http://www.w3.org/2000/svg" height="16.474mm" width="13.801mm" version="1.1" xmlns:cc="http://creativecommons.org/ns#" xmlns:dc="http://purl.org/dc/elements/1.1/" viewBox="0 0 48.900717 58.374059">
 <metadata id="metadata4750">
  <rdf:RDF>
   <cc:Work rdf:about="">
    <dc:format>image/svg+xml</dc:format>
    <dc:type rdf:resource="http://purl.org/dc/dcmitype/StillImage"/>
    <dc:title/>
   </cc:Work>
  </rdf:RDF>
 </metadata>
 <g id="layer1" transform="translate(793.02 -28.889)">
  <path id="path4734" d="m-774.54 85.054c-5.4119-3.1229-8.4626-8.6259-8.4836-15.303-0.0143-4.5682-0.27476-5.25-2.0056-5.25-1.8807 0-1.9556 0.47693-1.3753 8.75 0.56856 8.1048 0.44914 8.9343-1.6196 11.25l-2.2334 2.5 1.4448-2.5c1.0813-1.8709 1.3294-4.8299 0.98594-11.759l-0.45889-9.2592 2.9128-1.0154c2.7475-0.95778 5.8936-6.0719 4.5573-7.4082-1.7904-1.7904-4.0511 0.0809-7.0091 5.8018-4.1844 8.0929-7.1823 11.946-3.6217 4.6543 4.4532-9.1191 7.2722-13.014 9.4187-13.014 2.4197 0 2.4204 0.27216-0.0125-4.5-1.1-2.1576-2-4.5186-2-5.2466 0-0.72805-0.7284-2.5454-1.6187-4.0386l-1.6187-2.7148 2.1216 2.5c1.1669 1.375 2.3871 3.625 2.7116 5 1.2809 5.4279 1.603 6 3.3778 6 1.3412 0 1.6987-0.5366 1.3206-1.9822-0.37918-1.45 0.29351-2.4482 2.5053-3.7176l3.0237-1.7354-3.099-4.0324-3.099-4.0324 3.1594 2.9104c4.7316 4.3587 8.601 4.0888 13.035-0.90906 3.5057-3.9519 2.8731-2.6398-1.6374 3.3965-1.6782 2.2458-1.928 3.1022-0.90499 3.1022 1.8667 0 4.7231 3.2226 4.7231 5.3287 0 0.91919 0.62686 1.6713 1.393 1.6713 1.5186 0 2.607-2.0978 2.607-5.0246 0-1.0236 0.94445-3.4618 2.0988-5.4182 2.2336-3.7857 3.7314-4.9769 1.8592-1.4786-0.61183 1.1432-1.7771 4.3167-2.5894 7.0522-0.81235 2.7355-2.1895 5.2471-3.0604 5.5812-1.1923 0.45753-0.75614 1.0004 1.7656 2.1978 2.3108 1.0972 4.6558 3.7603 7.5643 8.5902 2.3184 3.85 4.2417 7.675 4.2739 8.5 0.0362 0.92549-0.41447 0.66614-1.1766-0.67714-7.8811-13.89-8.7758-15.125-10.613-14.645-1.6557 0.43297-1.7469 0.86166-0.75298 3.5392 0.69109 1.8618 2.2003 3.4222 3.8809 4.0124 2.7375 0.96135 2.75 1.0086 2.75 10.403 0 7.0774 0.41865 10.116 1.6742 12.152l1.6742 2.7148-2.3074-2.161c-2.1139-1.9798-2.292-2.9234-2.1235-11.25 0.17314-8.5569 0.0639-9.089-1.8668-9.089-1.8339 0-2.0507 0.61848-2.0507 5.8521 0 7.1158-2.4674 11.269-8.7768 14.773-5.1566 2.8637-5.6419 2.8605-10.723-0.0716zm16.064-54.846c0.37553-0.98622 0.93469-1.5412 1.2426-1.2333 0.30789 0.30789 0.00064 1.1148-0.68278 1.7931-0.98762 0.98026-1.1025 0.8654-0.5598-0.5598z"/>
 </g>
</svg>
