<?xml version="1.0" encoding="UTF-8" standalone="no"?>
<!-- Created with Inkscape (http://www.inkscape.org/) -->
<svg id="svg4817" xmlns:rdf="http://www.w3.org/1999/02/22-rdf-syntax-ns#" xmlns="http://www.w3.org/2000/svg" height="12.3mm" width="19.919mm" version="1.1" xmlns:cc="http://creativecommons.org/ns#" xmlns:dc="http://purl.org/dc/elements/1.1/" viewBox="0 0 70.578312 43.582137">
 <metadata id="metadata4822">
  <rdf:RDF>
   <cc:Work rdf:about="">
    <dc:format>image/svg+xml</dc:format>
    <dc:type rdf:resource="http://purl.org/dc/dcmitype/StillImage"/>
    <dc:title/>
   </cc:Work>
  </rdf:RDF>
 </metadata>
 <g id="layer1" transform="translate(-73.282 -299.14)">
  <path id="path4806" d="m121.26 341.33c-1.925-0.72849-5.7033-2.3339-8.3962-3.5676-3.4795-1.594-6.8071-2.2478-11.5-2.2596-6.027-0.0151-6.2981-0.10164-3.1038-0.99026 4.6373-1.2901 11.892-0.36169 17.749 2.2712 2.613 1.1747 7.226 2.3727 10.251 2.6621 4.6044 0.44059 5.9071 0.18442 8-1.5732l2.5-2.0995-8.5 0.23458c-9.0881 0.25081-12.311-1.3742-4.5745-2.3067 2.4698-0.29772 4.7791-0.82997 5.1319-1.1828 0.35281-0.35281-1.6383-1.7967-4.4247-3.2087-5.0858-2.5772-14.381-3.592-15.552-1.6979-0.81741 1.3226-18.465 2.4719-19.883 1.2949-1.119-0.92872-1.4948-1.0625-3.4478-1.2276-0.4125-0.0349 0.32508-0.49351 1.6391-1.0192 1.314-0.52571 3.8981-0.67274 5.7425-0.32673 6.4202 1.2044 6.9336-0.14949 1.9279-5.0843-4.5664-4.5018-4.5784-4.5064-11.815-4.5217-11.326-0.0239-12.764-2.6217-4.2965-7.7596 2.995-1.8172 4.8605-3.8079 5.5994-5.9751 1.2178-3.5721 3.3048-4.2181 4.8455-1.5 0.92921 1.6393 1.0873 1.6235 2.5002-0.25 1.4989-1.9876 1.5182-1.986 3.1145 0.25 2.0212 2.8314 4.2822 2.8314 10.807 0 7.2372-3.1403 20.326-3.1319 26.339 0.0169 4.9798 2.6078 9.8591 8.2525 10.878 12.584 1.4121 6.0055 1.4213 13.916 0.0193 16.561-0.75488 1.4238-1.94 4.1066-2.6336 5.9618-2.0963 5.6072-10.816 7.7804-18.916 4.7147zm-29.187-5.2708c0.72188-0.28888 1.5844-0.25335 1.9167 0.079 0.33229 0.33229-0.25834 0.56864-1.3125 0.52522-1.165-0.048-1.4019-0.28494-0.60417-0.60417z"/>
 </g>
</svg>
