<?xml version="1.0" encoding="UTF-8" standalone="no"?>
<!-- Created with Inkscape (http://www.inkscape.org/) -->
<svg id="svg4611" xmlns:rdf="http://www.w3.org/1999/02/22-rdf-syntax-ns#" xmlns="http://www.w3.org/2000/svg" height="25.633mm" width="14.953mm" version="1.1" xmlns:cc="http://creativecommons.org/ns#" xmlns:dc="http://purl.org/dc/elements/1.1/" viewBox="0 0 52.984359 90.827284">
 <metadata id="metadata4616">
  <rdf:RDF>
   <cc:Work rdf:about="">
    <dc:format>image/svg+xml</dc:format>
    <dc:type rdf:resource="http://purl.org/dc/dcmitype/StillImage"/>
    <dc:title/>
   </cc:Work>
  </rdf:RDF>
 </metadata>
 <g id="layer1" transform="translate(-384.93 -466.95)">
  <path id="path4600" d="m390.57 553.3c2.6766-3.7973 3.2427-5.6566 3.7294-12.25 0.3157-4.2753 0.3489-10.896 0.074-14.713-0.486-6.7458-0.4231-6.9839 2.2437-8.5 3.3483-1.9035 3.7918-6.8127 0.8556-9.47-2.3009-2.0823-2.6733-1.553-3.5661 5.068-0.4883 3.621-1.7886 6.6663-4.3643 10.221-2.0179 2.7845-4.0486 5.076-4.5127 5.0922s0.722-2.1499 2.6356-4.8136c2.0615-2.8694 3.7547-6.639 4.1548-9.25 1.1554-7.5385 2.4668-9.9069 5.4857-9.9069 2.3847 0 2.8328-0.55857 3.9522-4.9264 1.1546-4.5049 1.0967-5.0924-0.6771-6.8662-1.0669-1.0669-2.7174-3.976-3.6679-6.4648-1.6354-4.2823-1.6357-4.666-0.01-7.1532 1.667-2.5441 1.6633-5.9247-0.012-11.089-0.3568-1.1 0.1039-0.69644 1.0238 0.89679 1.745 3.0224 2.252 8.675 1.0855 12.103-0.4352 1.279 0.1 3.2618 1.4835 5.5 1.9887 3.2163 2.2542 3.3494 3.275 1.6417 3.0169-5.0471 4.8669-6.6417 7.7054-6.6417 2.394 0 3.4723 0.82445 5.7256 4.3776l2.7762 4.3776 2.2848-3.97c1.9492-3.3868 2.1153-4.3793 1.1307-6.7565-1.2117-2.9252-0.1701-8.9422 2.0822-12.029 0.8887-1.2178 0.9668-1.1238 0.4152 0.5-1.7043 5.0168-1.7178 8.5329-0.043 11.089 1.6296 2.4872 1.6293 2.8708-0.01 7.1532-0.9505 2.4888-2.6027 5.3996-3.6716 6.4685-1.825 1.825-1.8474 2.1461-0.3662 5.2673 0.8675 1.8281 1.5772 4.0434 1.5772 4.9227 0 1.017 0.8656 1.5989 2.3787 1.5989 2.682 0 4.0628 2.6558 5.1862 9.9749 0.4247 2.7665 1.9788 6.1668 4.0709 8.9068 1.8612 2.4376 3.1546 4.6614 2.8741 4.9418-0.5988 0.59887-0.2898 0.92445-4.7956-5.0523-2.6569-3.5243-3.7412-6.1387-4.2565-10.263-0.3804-3.0439-1.0288-5.7428-1.441-5.9976-1.1088-0.68531-3.656 2.601-4.3789 5.6496-0.5276 2.2249-0.1307 2.961 2.4264 4.5l3.0572 1.84 0.1893 14.671 0.1892 14.671 3.2294 4.5794c1.7762 2.5187 2.8485 4.5794 2.3829 4.5794-1.3809 0-5.8456-7.3763-7.0159-11.591-0.5969-2.1498-1.0877-8.6838-1.0908-14.52-0.01-10.497-0.03-10.607-2.2795-10.177-2.0176 0.3857-2.4717 1.5098-4.0287 9.9743-1.427 7.7578-1.5174 9.8256-0.4839 11.071 1.0911 1.3147 0.9656 1.4344-0.8871 0.84638-1.187-0.37671-2.4475-0.21662-2.8012 0.35575-0.3538 0.57238-2.3901 1.0407-4.5252 1.0407-2.135 0-4.1714-0.4683-4.5251-1.0407-0.3538-0.57237-1.6143-0.73246-2.8012-0.35575-1.8098 0.57441-1.9626 0.44946-0.9469-0.7744 2.1216-2.5563-1.9306-20.388-4.8037-21.139-1.6226-0.42431-1.7672 0.4513-1.6798 10.173 0.058 6.4138-0.4308 12.225-1.2301 14.637-1.4878 4.4895-5.8316 11.5-7.1254 11.5-0.4656 0 0.5734-2.0146 2.309-4.4768z"/>
 </g>
</svg>
