<?xml version="1.0" encoding="UTF-8" standalone="no"?>
<!-- Created with Inkscape (http://www.inkscape.org/) -->
<svg id="svg4477" xmlns:rdf="http://www.w3.org/1999/02/22-rdf-syntax-ns#" xmlns="http://www.w3.org/2000/svg" height="23.101mm" width="7.0882mm" version="1.1" xmlns:cc="http://creativecommons.org/ns#" xmlns:dc="http://purl.org/dc/elements/1.1/" viewBox="0 0 25.115825 81.85326">
 <metadata id="metadata4482">
  <rdf:RDF>
   <cc:Work rdf:about="">
    <dc:format>image/svg+xml</dc:format>
    <dc:type rdf:resource="http://purl.org/dc/dcmitype/StillImage"/>
    <dc:title/>
   </cc:Work>
  </rdf:RDF>
 </metadata>
 <g id="layer1" transform="translate(-467.44 -380.01)">
  <path id="path4466" d="m473.85 461.08c-0.0259-0.43079 1.0778-3.0033 2.4528-5.7168 2.9728-5.8665 3.2457-7.8497 0.80804-5.8724-1.2305 0.99811-1.4816 1.0226-0.92085 0.0899 0.42411-0.70542 1.1701-2.6737 1.6577-4.374 0.84036-2.9301 0.79299-3.0067-0.90788-1.4674-2.3035 2.0846-3.7862 2.1303-1.7084 0.0526 1.7081-1.7081 2.1663-3.9143 0.61365-2.9547-0.52677 0.32557-0.30455-0.66037 0.49384-2.191 2.2596-4.3319 1.9111-5.9701-0.78606-3.6951l-2.25 1.8978 2.25-2.5573c2.6969-3.0652 2.8867-4.3848 0.5-3.4761-1.4032 0.53418-1.5022 0.41665-0.5-0.59302 1.7858-1.799 1.5432-2.8887-0.5-2.2462-1.6667 0.52405-1.6667 0.48159 0-0.89163 2.4338-2.0053 2.1853-4.4984-0.5-5.0157l-2.25-0.43337 2.25-0.13618c1.5379-0.0931 2.25-0.76912 2.25-2.1362 0-1.3779-0.69989-2.031-2.25-2.0997l-2.25-0.0997 2.309-0.65032c2.7784-0.78252 3.0167-2.3052 0.51498-3.291-1.5855-0.62478-1.5298-0.72795 0.426-0.78904 1.2375-0.0387 2.25-0.67652 2.25-1.4175 0-0.74095-1.0125-1.8799-2.25-2.5309-1.2375-0.65106-1.4769-0.96447-0.53202-0.69648 2.6814 0.76049 3.1855-1.3212 0.59627-2.4621-2.3082-1.0171-2.3084-1.0186-0.0643-0.58516 1.2375 0.23903 2.25 0.0267 2.25-0.47179 0-0.49851-0.5625-0.91327-1.25-0.92169-0.83247-0.0102-0.75059-0.33104 0.24513-0.96052 1.2826-0.81082 1.2115-1.1596-0.5-2.4529-1.0973-0.82923-2.4076-1.522-2.9118-1.5395-0.50417-0.0175-0.65521-0.29326-0.33565-0.61282s1.6321-0.0291 2.9167 0.64551c2.2264 1.1692 2.2609 1.1379 0.73775-0.66898-2.3002-2.7286-3.4276-4.8383-2.1703-4.0613 0.57245 0.3538 1.3001-0.34807 1.6169-1.5597 0.63463-2.4268-0.72577-3.7356-3.9076-3.7592-1.1324-0.008-2.9314-0.65332-3.9978-1.4331-1.6069-1.175-0.99745-1.1569 3.5589 0.10543 8.5636 2.3726 8.9256 2.2853 12.626-3.0468 1.8546-2.6726 3.372-4.4278 3.372-3.9005 0 0.52729-1.3325 2.9389-2.961 5.3592-1.6286 2.4203-2.5286 4.5505-2 4.7338 0.52858 0.18334 0.99268 1.3083 1.0313 2.5 0.0681 2.0981 0.0975 2.1034 0.92971 0.16667 0.47269-1.1 0.89106-1.4079 0.92971-0.68426 0.0387 0.72366-0.44424 2.2772-1.0731 3.4522-0.86712 1.6202-0.85704 2.2319 0.0417 2.5315 0.90356 0.30118 0.89351 0.74643-0.0423 1.874-0.9807 1.1817-0.93883 1.6616 0.20826 2.3874 0.9969 0.63081 1.0537 0.91316 0.1857 0.92379-0.6875 0.008-1.25 0.45119-1.25 0.98392 0 0.53274 0.675 0.7096 1.5 0.39302 0.825-0.31659 1.5-1.1462 1.5-1.8436 0-0.69741 1.125-1.268 2.5-1.268s2.4931 0.28125 2.4847 0.625c-0.0373 1.5238-1.6721 2.7328-3.8838 2.8721-1.3195 0.0831-2.8907 0.64275-3.4916 1.2437-1.7055 1.7055 1.3232 3.1614 5.3907 2.5912 3.3243-0.46597 3.3996-0.41265 1.5 1.0623-1.1 0.85411-3.2375 2.0026-4.75 2.5522-3.3852 1.23-3.6684 4.4989-0.5 5.7724l2.25 0.90439-2.25 0.0634c-3.1295 0.0882-2.8165 2.4512 0.5 3.7747 2.6507 1.0578 2.6236 1.078-0.75 0.56081-4.066-0.62341-3.124 1.2671 1 2.007 2.4494 0.43942 2.4444 0.45126-0.25 0.58468-2.8118 0.13924-3.6254 1.4771-1.6432 2.7022 0.77275 0.47758 0.6973 0.96067-0.25 1.6007-1.0304 0.69618-0.91063 0.84653 0.49781 0.625 1.0723-0.16865 2.5383 0.72314 3.4754 2.1141 1.5794 2.3442 1.5656 2.3762-0.53882 1.25-1.1878-0.63571-2.342-1.1558-2.5647-1.1558-1.0223 0 0.12274 5.8503 1.7615 9 1.7608 3.3842 1.7608 3.4504 0.00062 2-1.7076-1.4071-1.7743-1.3141-1.0766 1.5 0.40908 1.65 1.471 3.8069 2.3598 4.793 1.3846 1.5363 1.3963 1.7087 0.0819 1.2043-0.84377-0.32379-2.2894-2.0307-3.2125-3.793-1.6703-3.189-1.6764-3.1636-1.26 5.2957l0.41839 8.5-1.0384-7.25c-0.70773-4.9412-1.472-7.25-2.3998-7.25-0.74877 0-1.3826 0.7875-1.4086 1.75-0.0472 1.752-5.8167 13.443-5.9056 11.967zm12.982-22.678c-0.80907-0.51167-1.2107-1.1907-0.8925-1.5088 0.3182-0.3182 1.1478 0.10733 1.8435 0.94562 1.4426 1.7382 1.166 1.902-0.95098 0.56323zm0.97104-40.039c-0.90129-0.58246-1.0246-0.97549-0.30902-0.98469 0.65504-0.008 1.4691 0.43469 1.809 0.98469 0.7673 1.2415 0.42112 1.2415-1.5 0z"/>
 </g>
</svg>
