<?xml version="1.0" encoding="UTF-8" standalone="no"?>
<!-- Created with Inkscape (http://www.inkscape.org/) -->
<svg id="svg4548" xmlns:rdf="http://www.w3.org/1999/02/22-rdf-syntax-ns#" xmlns="http://www.w3.org/2000/svg" height="18.943mm" width="20.132mm" version="1.1" xmlns:cc="http://creativecommons.org/ns#" xmlns:dc="http://purl.org/dc/elements/1.1/" viewBox="0 0 71.332527 67.119537">
 <metadata id="metadata4553">
  <rdf:RDF>
   <cc:Work rdf:about="">
    <dc:format>image/svg+xml</dc:format>
    <dc:type rdf:resource="http://purl.org/dc/dcmitype/StillImage"/>
    <dc:title/>
   </cc:Work>
  </rdf:RDF>
 </metadata>
 <g id="layer1" transform="translate(1132.8 509.77)">
  <path id="path4537" d="m-1110.2-446.38c-0.073-2.051 1.1705-8.351 2.7645-14 3.7687-13.356 4.6036-18.901 2.7382-18.185-0.758 0.29087-1.6581-0.20052-2.0002-1.092-0.9038-2.3552-2.6378-0.82657-2.626 2.3149 0.019 5.0675-4.3473 15.321-8.335 19.573l-3.8614 4.1175 3.2512-4.3434c5.3816-7.1896 10.164-23.157 6.9351-23.157-0.55 0-1.0143 0.7875-1.0318 1.75-0.018 0.9625-0.6925 2.6235-1.5 3.6911-1.2803 1.6926-1.4682 1.7247-1.4682 0.25 0-2.1188-2.3348-2.1976-4.0453-0.13653-0.7096 0.85502-2.2272 2.0266-3.3725 2.6036-1.1452 0.57696-0.3947-0.38037 1.6678-2.1274 4.3441-3.6796 4.8108-5.4668 1.25-4.786-1.375 0.26285-2.5 0.0903-2.5-0.38342 0-0.47373 1.0125-0.86694 2.25-0.8738 1.9994-0.0111 1.7767-0.45208-2-3.9599-2.3375-2.1711-4.25-4.2478-4.25-4.6149 0-0.36712 2.0149 1.1898 4.4776 3.4599 5.3517 4.933 7.5224 5.2972 7.5224 1.2622 0-1.5758 0.9-4.0093 2-5.4077s2-2.992 2-3.5412c0-0.54926 0.8858-0.76701 1.9684-0.4839 1.2586 0.32914 3.6925-0.74811 6.75-2.9876 4.8107-3.5237 20.415-10.928 25.532-12.115 2.8386-0.65837 3.5449 0.20534 1.6872 2.0631-0.7505 0.75045 0.4252 1.2602 4 1.7344 9.753 1.2938 6.0675 3.8759-13.62 9.5427-8.6654 2.4942-9.4793 2.9144-6.9395 3.5832 1.9989 0.52631 3.7252 0.2568 5.6543-0.88275 1.5273-0.9022 2.9916-1.6404 3.254-1.6404 0.2623 0 0.9782 1.9907 1.5909 4.4238 0.7544 2.9961 2.1643 5.2516 4.3687 6.9889 3.0018 2.3657 3.0799 2.566 1.0048 2.5762-1.2375 0.006-2.25 0.4165-2.25 0.91201 0 0.4955 2.0383 3.6124 4.5295 6.9265 3.3372 4.4394 5.6405 6.4414 8.75 7.6051 2.924 1.0943 3.2989 1.4032 1.2205 1.0058-4.5494-0.87-7.1349-2.9396-12.162-9.7354-2.9303-3.961-5.1759-6.0831-6.2132-5.8715-0.8934 0.18222-3.1011 0.57061-4.9059 0.86308-2.4419 0.39572-3.1592 0.95059-2.8033 2.1687 0.263 0.90031 0.7951 3.42 1.1826 5.5992 0.7922 4.4559 4.9216 11.962 10.032 18.237 2.4061 2.9539 4.8213 4.6475 8.1451 5.7115 3.7246 1.1923 3.9839 1.3949 1.2249 0.95692-1.925-0.30559-5.0971-1.6368-7.0491-2.9583-4.7827-3.2378-12.621-16.358-13.94-23.333-1.1869-6.2781-1.0698-6.0949-4.151-6.4979-1.2981-0.16977-3.627-0.81936-5.1753-1.4435-1.5483-0.62417-2.9527-1.1348-3.1208-1.1348-0.1682 0-0.619 2.8125-1.0018 6.25s-1.8634 10.3-3.2902 15.25c-1.4267 4.95-2.9115 11.025-3.2995 13.5l-0.7054 4.5-0.1336-3.7292zm28.449-45.416c-0.4924-1.283-0.8877-1.346-2.1054-0.33537-1.3216 1.0968-1.2906 1.3982 0.2618 2.5427 1.9218 1.417 2.8212 0.3402 1.8436-2.2074zm-35.413 24.146c-0.016-1.1 0.3574-2.9 0.8301-4 1.095-2.5482 1.095 0.0808 0 3.5-0.6436 2.0097-0.8064 2.1078-0.8301 0.5zm21.289-4.5665c-0.3626-0.58659-0.4447-1.281-0.1826-1.5431 0.2621-0.26213 0.7431 0.21781 1.0688 1.0665 0.6761 1.7621 0.1 2.0721-0.8862 0.4766zm-1.38-4.5168c0.048-1.165 0.285-1.4019 0.6042-0.60417 0.2889 0.72187 0.2533 1.5844-0.079 1.9167-0.3323 0.33229-0.5686-0.25834-0.5252-1.3125zm-30.329-3.079c0.6875-0.27741 1.8125-0.27741 2.5 0s0.125 0.50438-1.25 0.50438-1.9375-0.22697-1.25-0.50438zm-5.1924-1.2445c-0.3082-0.49871 0.3402-0.67122 1.441-0.38337 2.335 0.61061 2.6302 1.2901 0.5604 1.2901-0.7925 0-1.6932-0.40803-2.0014-0.90674z"/>
 </g>
</svg>
